#!OML:ASF H:\Terrain\Walking\May29\JustinRory\rory.ASF
:FULLY-SPECIFIED
:DEGREES
408
root 9.82271 14.6212 -7.45623 -7.94846 12.1781 1.80223
lowerback 32.4642 3.86273 8.92886
upperback 8.21834 7.77728 -1.39425
thorax -6.25079 3.85158 -8.78573
lowerneck -15.2414 -15.2802 -12.8848
upperneck -7.22159 -18.3242 17.6196
head 3.11773 -8.49838 5.72139
rclavicle -4.8901e-014 1.90833e-014
rhumerus 87.9234 -36.1741 -115.71
rradius 5.51387
rwrist 92.5907
rhand -23.435 15.0078
rfingers 7.12502
rthumb 3.02296 -14.9506
lclavicle -4.8901e-014 1.90833e-014
lhumerus -0.259885 -30.8728 73.7234
lradius 104.948
lwrist 4.60615
lhand -24.406 12.7741
lfingers 7.12502
lthumb 2.08523 42.7437
rfemur -43.4856 8.47082 -6.96959
rtibia 38.1769
rfoot 13.8041 -6.0703
rtoes -3.62175
lfemur -56.3319 -7.40146 -9.97704
ltibia 57.1949
lfoot 12.9291 -11.4057
ltoes -7.46101
409
root 9.73894 14.5883 -7.43779 -7.70005 12.6783 2.65376
lowerback 33.0154 3.75586 8.33263
upperback 8.26116 7.48057 -1.54525
thorax -6.53283 3.6949 -8.58561
lowerneck -15.2594 -14.9915 -12.6666
upperneck -7.47521 -17.9224 17.2715
head 2.92892 -8.3187 5.66038
rclavicle 1.35174e-014 3.18055e-015
rhumerus 88.2919 -35.8188 -115.685
rradius 5.60347
rwrist 93.5163
rhand -23.1708 15.7261
rfingers 7.12502
rthumb 3.27817 -14.2285
lclavicle 1.35174e-014 3.18055e-015
lhumerus -1.07433 -30.9058 74.2496
lradius 106.808
lwrist 4.50261
lhand -24.7726 12.5169
lfingers 7.12502
lthumb 1.73115 42.4896
rfemur -44.2871 6.7685 -7.19137
rtibia 39.753
rfoot 13.5566 -5.25924
rtoes -0.225812
lfemur -56.9716 -7.49433 -10.9019
ltibia 57.9597
lfoot 13.6352 -10.6184
ltoes -5.25069
410
root 9.64881 14.5513 -7.41011 -7.65313 13.4853 3.37233
lowerback 33.475 3.50666 7.81476
upperback 8.45558 7.01732 -1.69162
thorax -6.62624 3.48098 -8.34478
lowerneck -15.2785 -14.6732 -12.2693
upperneck -7.69604 -17.5214 17.0706
head 2.75661 -8.13959 5.61312
rclavicle -4.37326e-015 -4.45278e-014
rhumerus 88.8308 -35.3494 -115.902
rradius 5.6622
rwrist 93.7802
rhand -23.0271 15.9726
rfingers 7.12502
rthumb 3.41692 -13.9798
lclavicle -4.37326e-015 -4.45278e-014
lhumerus -1.63397 -31.0013 74.5131
lradius 108.352
lwrist 4.39075
lhand -25.6662 11.7381
lfingers 7.12502
lthumb 0.868109 41.7161
rfemur -44.7263 5.2169 -7.40022
rtibia 41.2718
rfoot 13.0427 -4.2286
rtoes 2.93095
lfemur -57.4897 -7.79616 -11.8226
ltibia 58.6567
lfoot 14.6072 -9.67709
ltoes -2.63295
411
root 9.5506 14.5143 -7.38198 -7.69158 14.1755 3.50159
lowerback 34.0045 3.22243 7.75593
upperback 8.46851 6.67492 -1.77617
thorax -6.86986 3.30577 -8.32836
lowerneck -15.0376 -14.3215 -11.7618
upperneck -7.76981 -17.1442 16.999
head 2.60324 -7.98174 5.59031
rclavicle 3.57812e-015 -2.14687e-014
rhumerus 89.2012 -35.1563 -116.198
rradius 5.87569
rwrist 94.0485
rhand -22.9804 16.0741
rfingers 7.12502
rthumb 3.46203 -13.8775
lclavicle 3.57812e-015 -2.14687e-014
lhumerus -2.59241 -31.4114 74.7828
lradius 109.84
lwrist 4.19953
lhand -26.1299 10.6696
lfingers 7.12502
lthumb 0.420309 40.6489
rfemur -45.1728 4.15699 -7.11165
rtibia 42.8107
rfoot 12.4755 -3.80846
rtoes 2.6424
lfemur -58.1452 -7.88213 -12.0517
ltibia 59.4421
lfoot 15.5498 -9.05299
ltoes -0.746014
412
root 9.45047 14.4705 -7.34863 -7.58983 14.517 3.35541
lowerback 34.373 3.14934 7.75562
upperback 8.45069 6.61602 -1.73
thorax -7.04198 3.26522 -8.28356
lowerneck -14.9977 -14.0748 -11.3987
upperneck -7.72968 -16.878 17.0596
head 2.55528 -7.85927 5.59385
rclavicle -3.33958e-014 -8.74653e-015
rhumerus 89.6711 -35.1744 -116.455
rradius 6.20569
rwrist 94.5687
rhand -23.7043 16.076
rfingers 7.12502
rthumb 2.76289 -13.8858
lclavicle -3.33958e-014 -8.74653e-015
lhumerus -3.39926 -31.9194 75.1684
lradius 111.071
lwrist 4.36936
lhand -26.2393 10.2085
lfingers 7.12502
lthumb 0.31465 40.188
rfemur -45.9756 3.62257 -6.65727
rtibia 44.3088
rfoot 11.8644 -3.32091
rtoes 2.05692
lfemur -58.9266 -7.46762 -11.8773
ltibia 60.3357
lfoot 16.6012 -8.51921
ltoes 3.20509
413
root 9.34857 14.4099 -7.31005 -7.48549 15.0627 3.02413
lowerback 34.5327 3.05242 7.81295
upperback 8.665 6.55134 -1.44707
thorax -6.89781 3.24829 -7.98223
lowerneck -15.7728 -14.039 -11.2923
upperneck -7.44746 -16.7966 17.0195
head 2.72949 -7.77722 5.52826
rclavicle 1.90833e-014 -3.18055e-015
rhumerus 90.5152 -35.0122 -116.629
rradius 6.48494
rwrist 94.8802
rhand -24.3146 16.385
rfingers 7.12502
rthumb 2.17356 -13.5837
lclavicle 1.90833e-014 -3.18055e-015
lhumerus -3.30311 -32.2275 75.7265
lradius 111.53
lwrist 4.6402
lhand -26.4843 10.3185
lfingers 7.12502
lthumb 0.0780182 40.2982
rfemur -46.8139 3.10645 -6.15124
rtibia 45.8025
rfoot 11.1618 -2.71336
rtoes 0.118044
lfemur -60.0525 -7.05722 -11.6823
ltibia 61.3471
lfoot 18.0144 -8.21888
ltoes 7.06312
414
root 9.24914 14.3697 -7.28933 -7.58953 15.9304 2.75858
lowerback 35.0034 2.81616 7.95634
upperback 8.77183 6.36767 -1.21913
thorax -6.98958 3.15768 -7.77115
lowerneck -16.2406 -14.038 -11.2588
upperneck -7.13819 -16.7876 16.9835
head 2.8824 -7.7435 5.48001
rclavicle -8.70677e-014 3.18055e-014
rhumerus 91.264 -35.0106 -116.741
rradius 6.58195
rwrist 95.2844
rhand -23.7517 16.2885
rfingers 7.12502
rthumb 2.71717 -13.6739
lclavicle -8.70677e-014 3.18055e-014
lhumerus -3.549 -32.5466 76.5311
lradius 111.733
lwrist 4.74698
lhand -26.714 10.0978
lfingers 7.12502
lthumb -0.143881 40.0775
rfemur -47.196 2.42021 -5.71644
rtibia 47.1697
rfoot 10.5495 -2.73089
rtoes 0.628119
lfemur -61.1332 -6.89056 -11.9356
ltibia 62.3842
lfoot 19.0242 -8.8432
ltoes 4.50252
415
root 9.15698 14.325 -7.27058 -7.92779 16.6085 2.51362
lowerback 35.9674 2.56752 8.18238
upperback 8.55467 6.23639 -1.15567
thorax -7.46094 3.05915 -7.80751
lowerneck -15.8529 -13.866 -10.9028
upperneck -7.14211 -16.6492 16.7885
head 2.75768 -7.70772 5.41148
rclavicle 1.55052e-014 5.1684e-014
rhumerus 91.6812 -35.2153 -116.814
rradius 6.53877
rwrist 96.1073
rhand -22.8542 16.4962
rfingers 7.12502
rthumb 3.58389 -13.4534
lclavicle 1.55052e-014 5.1684e-014
lhumerus -4.67476 -32.8674 77.5043
lradius 112.057
lwrist 4.75598
lhand -26.9923 9.98296
lfingers 7.12502
lthumb -0.412678 39.9623
rfemur -47.3964 1.79612 -5.19387
rtibia 48.4154
rfoot 10.1675 -2.89183
rtoes 1.95495
lfemur -61.7147 -6.66289 -12.2146
ltibia 63.5219
lfoot 19.0014 -9.38401
ltoes -0.0343984
416
root 9.06842 14.2817 -7.25563 -8.48877 17.0076 1.86589
lowerback 36.8869 2.2752 8.65275
upperback 8.5502 6.15621 -0.87342
thorax -7.78286 2.99436 -7.76496
lowerneck -15.6926 -13.7471 -10.7703
upperneck -7.35605 -16.4952 16.5721
head 2.61596 -7.65392 5.36622
rclavicle 6.87795e-014 -2.62396e-014
rhumerus 92.1093 -34.9417 -116.759
rradius 6.52613
rwrist 96.9826
rhand -22.3683 17.1536
rfingers 7.12502
rthumb 4.05315 -12.7876
lclavicle 6.87795e-014 -2.62396e-014
lhumerus -5.79065 -32.8852 78.6633
lradius 112.126
lwrist 4.5323
lhand -27.7093 9.98065
lfingers 7.12502
lthumb -1.10512 39.9575
rfemur -47.5009 1.50176 -4.23926
rtibia 49.4431
rfoot 9.93093 -3.15894
rtoes 2.76911
lfemur -62.0803 -6.35026 -11.8749
ltibia 64.7117
lfoot 18.8195 -9.18498
ltoes -0.0145909
417
root 8.98879 14.2638 -7.25083 -8.99542 17.2703 1.12598
lowerback 37.6493 1.97416 9.18162
upperback 8.73482 6.08114 -0.562027
thorax -7.82721 2.95794 -7.69553
lowerneck -16.2286 -13.8127 -11.0801
upperneck -7.52275 -16.4611 16.7201
head 2.67989 -7.60485 5.43725
rclavicle 5.1684e-014 -2.14687e-014
rhumerus 92.8633 -34.449 -116.86
rradius 6.52405
rwrist 97.4636
rhand -22.2468 16.6764
rfingers 7.12502
rthumb 4.17041 -13.2625
lclavicle 5.1684e-014 -2.14687e-014
lhumerus -6.29334 -32.7335 79.5276
lradius 111.818
lwrist 4.38976
lhand -28.2996 10.3002
lfingers 7.12502
lthumb -1.67531 40.2734
rfemur -47.5837 1.47156 -3.30257
rtibia 50.2525
rfoot 9.58653 -3.03598
rtoes 2.27898
lfemur -62.496 -5.99308 -11.4486
ltibia 65.8977
lfoot 18.6477 -8.99099
ltoes 2.65646
418
root 8.9181 14.2483 -7.2454 -9.17825 17.5478 0.587502
lowerback 38.0906 1.82477 9.71054
upperback 8.66676 6.15635 -0.474016
thorax -7.9921 2.97604 -7.92099
lowerneck -15.6097 -13.7284 -10.9765
upperneck -7.85846 -16.3908 16.7664
head 2.4786 -7.61083 5.48782
rclavicle -6.75868e-015 3.02153e-014
rhumerus 93.4651 -34.7347 -117.049
rradius 6.50605
rwrist 97.8029
rhand -22.0316 15.9808
rfingers 7.12502
rthumb 4.37827 -13.954
lclavicle -6.75868e-015 3.02153e-014
lhumerus -7.15439 -33.0112 80.3096
lradius 111.379
lwrist 4.53241
lhand -28.2732 10.3643
lfingers 7.12502
lthumb -1.64981 40.3377
rfemur -47.8362 1.3537 -2.63715
rtibia 50.8598
rfoot 9.1992 -2.50278
rtoes 0.0463761
lfemur -63.161 -5.61449 -11.3098
ltibia 67.106
lfoot 17.8513 -8.9869
ltoes 2.77734
419
root 8.85707 14.2319 -7.23433 -9.05053 17.8449 0.179367
lowerback 37.9749 1.51741 9.89573
upperback 8.94544 5.83098 -0.404112
thorax -7.68289 2.85706 -7.79735
lowerneck -16.8503 -13.5752 -10.7762
upperneck -7.23872 -16.1617 16.6027
head 2.7826 -7.43045 5.36084
rclavicle 7.55382e-015 4.21423e-014
rhumerus 94.1289 -33.8792 -117.556
rradius 6.57722
rwrist 98.2056
rhand -22.4944 15.739
rfingers 7.12502
rthumb 3.93131 -14.2045
lclavicle 7.55382e-015 4.21423e-014
lhumerus -7.77883 -32.1671 80.7011
lradius 111.123
lwrist 5.23029
lhand -27.9389 10.1439
lfingers 7.12502
lthumb -1.32688 40.1195
rfemur -48.2132 0.969847 -2.0467
rtibia 51.2756
rfoot 9.04964 -2.38809
rtoes -1.86925
lfemur -64.1737 -5.25389 -11.2593
ltibia 68.3696
lfoot 16.6133 -8.59525
ltoes 1.82432
420
root 8.80481 14.2344 -7.22754 -8.91709 18.1952 -0.222397
lowerback 37.5766 1.34252 10.2929
upperback 8.85841 5.72982 -0.369503
thorax -7.62065 2.80811 -7.91452
lowerneck -15.0063 -13.2063 -10.4689
upperneck -8.15474 -15.7951 16.8192
head 2.19843 -7.36717 5.54792
rclavicle 3.93594e-014 3.33958e-014
rhumerus 94.1002 -34.0568 -117.676
rradius 6.6013
rwrist 98.2009
rhand -22.8732 15.9974
rfingers 7.12502
rthumb 3.56554 -13.9525
lclavicle 3.93594e-014 3.33958e-014
lhumerus -9.57632 -31.9237 81.599
lradius 111.042
lwrist 6.71963
lhand -27.446 11.0476
lfingers 7.12502
lthumb -0.850891 41.0257
rfemur -48.453 0.415747 -1.45206
rtibia 51.5472
rfoot 9.03483 -2.59978
rtoes -1.31105
lfemur -65.1166 -5.03884 -11.2323
ltibia 69.6884
lfoot 15.0453 -8.24165
ltoes 1.11981
421
root 8.74901 14.2374 -7.22065 -8.81147 18.612 -0.488686
lowerback 37.426 1.15408 10.4421
upperback 8.91177 5.53753 -0.351961
thorax -7.52841 2.72711 -7.89346
lowerneck -14.7964 -13.1539 -10.2692
upperneck -8.26479 -15.7655 16.9595
head 2.13212 -7.36952 5.5776
rclavicle -6.87795e-014 1.35174e-014
rhumerus 94.3899 -33.9976 -118.019
rradius 6.53996
rwrist 97.8567
rhand -22.1742 16.4021
rfingers 7.12502
rthumb 4.24057 -13.5354
lclavicle -6.87795e-014 1.35174e-014
lhumerus -10.5136 -31.2915 82.1773
lradius 110.221
lwrist 8.03044
lhand -27.2033 11.9547
lfingers 7.12502
lthumb -0.616426 41.9335
rfemur -48.6789 -0.036689 -1.08998
rtibia 51.7035
rfoot 9.02964 -3.06011
rtoes 1.53305
lfemur -65.8941 -4.89449 -11.4162
ltibia 71.1306
lfoot 13.0815 -7.98187
ltoes 0.987096
